<?xml version="1.0" standalone="no"?>
<!DOCTYPE svg PUBLIC "-//W3C//DTD SVG 20010904//EN"
 "http://www.w3.org/TR/2001/REC-SVG-20010904/DTD/svg10.dtd">
<svg version="1.0" xmlns="http://www.w3.org/2000/svg"
 width="128.000000pt" height="128.000000pt" viewBox="0 0 128.000000 128.000000"
 preserveAspectRatio="xMidYMid meet">
<metadata>
Created by potrace 1.14, written by Peter Selinger 2001-2017
</metadata>
<g transform="translate(0.000000,128.000000) scale(0.100000,-0.100000)"
fill="#000000" stroke="none">
<path d="M0 640 l0 -640 640 0 640 0 0 640 0 640 -640 0 -640 0 0 -640z m181
560 c13 8 19 7 19 0 0 -6 5 -8 11 -5 15 10 79 12 79 3 0 -3 14 -3 30 2 17 5
30 5 30 2 0 -9 64 -7 79 3 6 3 11 2 11 -4 0 -6 8 -7 17 -4 21 8 64 9 84 1 7
-3 23 -2 34 2 11 4 30 3 43 -1 14 -6 31 -5 43 1 13 8 19 7 19 0 0 -6 5 -8 11
-5 15 10 79 12 79 3 0 -3 14 -3 30 2 16 5 30 5 30 2 0 -9 64 -7 79 3 6 3 11 2
11 -4 0 -6 8 -7 17 -4 21 8 64 9 84 1 7 -3 23 -2 34 2 11 4 30 3 43 -1 14 -6
31 -5 43 1 12 7 19 7 19 1 0 -6 6 -8 14 -5 8 3 19 -3 26 -15 7 -15 7 -21 0
-21 -7 0 -8 -6 -2 -17 5 -10 6 -29 2 -43 -4 -14 -3 -33 2 -42 5 -10 5 -18 0
-18 -8 0 -8 -58 1 -66 3 -3 2 -18 -3 -33 -4 -15 -3 -35 2 -44 5 -10 5 -17 0
-17 -8 0 -8 -58 1 -66 3 -3 2 -18 -3 -33 -4 -15 -3 -35 2 -44 5 -10 5 -17 0
-17 -8 0 -8 -58 1 -66 3 -3 2 -18 -3 -33 -4 -15 -3 -35 2 -44 5 -10 5 -17 0
-17 -8 0 -8 -58 1 -66 3 -3 2 -18 -3 -33 -4 -15 -3 -35 2 -44 5 -10 5 -17 0
-17 -8 0 -8 -58 1 -66 3 -3 2 -18 -3 -33 -4 -15 -3 -35 2 -44 5 -10 5 -17 0
-17 -4 0 -7 -15 -5 -32 8 -76 2 -118 -19 -129 -12 -6 -18 -6 -18 0 0 6 -8 7
-17 4 -21 -8 -64 -9 -84 -1 -7 3 -23 2 -34 -2 -11 -4 -30 -3 -43 1 -14 6 -31
5 -43 -1 -13 -8 -19 -7 -19 0 0 6 -5 8 -11 4 -13 -8 -139 -11 -139 -4 0 10
-75 5 -82 -5 -5 -6 -8 -5 -8 2 0 8 -7 10 -17 6 -21 -8 -64 -9 -84 -1 -7 3 -23
2 -34 -2 -11 -4 -30 -3 -43 1 -14 6 -31 5 -43 -1 -13 -8 -19 -7 -19 0 0 6 -5
8 -11 5 -15 -10 -79 -12 -79 -3 0 3 -13 3 -30 -2 -16 -5 -30 -5 -30 -2 0 9
-64 7 -79 -3 -6 -3 -11 -1 -11 5 0 6 -5 8 -11 5 -15 -10 -79 -12 -79 -3 0 5
-5 7 -11 5 -6 -1 -15 8 -20 21 -4 12 -5 22 -1 22 4 0 7 14 7 30 0 17 -2 30 -5
30 -7 0 -4 66 5 79 3 6 1 11 -5 11 -7 0 -8 6 0 19 6 12 7 29 1 43 -4 13 -5 32
-1 43 4 11 5 27 2 34 -8 20 -7 63 1 84 3 9 2 17 -4 17 -6 0 -7 5 -4 11 10 15
12 79 3 79 -3 0 -3 14 2 30 5 17 5 30 2 30 -9 0 -7 64 3 79 3 6 1 11 -5 11 -7
0 -8 6 0 19 6 12 7 29 1 43 -4 13 -5 32 -1 43 4 11 5 27 2 34 -8 20 -7 63 1
84 3 9 2 17 -4 17 -6 0 -7 5 -4 11 10 15 12 79 3 79 -3 0 -3 14 2 30 5 17 5
30 1 30 -5 0 -6 12 -3 26 3 16 9 23 18 20 8 -3 14 -1 14 4 0 6 10 6 26 0 17
-7 32 -7 45 0z"/>
<path d="M438 1085 c-2 -2 -23 -5 -48 -8 -54 -7 -93 -21 -130 -47 -84 -60 -80
-222 7 -287 16 -11 72 -42 124 -68 106 -53 153 -93 170 -142 48 -145 -159
-229 -272 -110 -27 29 -59 91 -59 115 0 28 -24 46 -39 29 -6 -8 -8 -16 -5 -19
3 -3 4 -46 4 -94 -2 -123 -2 -126 5 -132 3 -3 16 5 30 18 24 22 26 23 62 7 54
-23 75 -28 124 -28 104 -2 188 34 233 99 56 79 34 210 -44 276 -18 14 -84 53
-148 86 -64 32 -123 69 -130 80 -34 55 -16 127 38 155 35 18 129 20 165 3 31
-14 59 -58 74 -115 8 -28 16 -40 25 -37 18 7 18 204 -1 204 -6 0 -14 -4 -17
-9 -4 -6 -19 -6 -39 0 -43 12 -126 27 -129 24z"/>
<path d="M754 1059 c-9 -15 6 -29 31 -29 13 0 37 -11 52 -24 l28 -24 2 -369
c2 -353 1 -372 -18 -411 -11 -22 -28 -43 -37 -47 -35 -14 -68 -15 -85 -2 -15
10 -16 18 -8 39 14 36 -10 68 -51 68 -86 0 -72 -121 17 -150 114 -38 239 27
285 147 17 46 19 81 20 378 0 238 4 335 13 354 9 19 25 29 55 36 24 6 43 14
43 18 -1 4 -1 11 -1 16 0 11 -339 11 -346 0z"/>
</g>
</svg>
